<?xml version="1.0" encoding="UTF-8"?>
<svg version="1.1" xmlns="http://www.w3.org/2000/svg" xmlns:xlink="http://www.w3.org/1999/xlink">
<defs></defs>
<symbol id="add-plus" fill="none" viewBox="0 0 24 24"><path stroke="var(--currentColor, #595959)" stroke-linecap="round" stroke-linejoin="round" stroke-width="2" d="M6 12h6m0 0h6m-6 0v6m0-6V6"/></symbol>
<symbol id="close" fill="none" viewBox="0 0 24 24"><path stroke="#fff" stroke-linecap="round" stroke-linejoin="round" stroke-width="2" d="m16 16-4-4m0 0L8 8m4 4 4-4m-4 4-4 4"/></symbol>
<symbol id="arrow-down-right" fill="none" viewBox="0 0 44 44"><path fill="#fff" fill-rule="evenodd" d="M9.036 9.037a1.833 1.833 0 0 1 2.593 0L31.833 29.24v-8.537a1.833 1.833 0 1 1 3.666 0l.001 12.963c0 1.013-.82 1.834-1.833 1.834H20.704a1.833 1.833 0 0 1 0-3.666h8.537L9.036 11.63a1.833 1.833 0 0 1 0-2.593" clip-rule="evenodd"/></symbol>
<symbol id="cart" fill="none" viewBox="0 0 24 24"><path stroke="var(--currentColor, #595959)" stroke-linecap="round" stroke-linejoin="round" stroke-width="2" d="M17 17a2 2 0 1 0 0 4 2 2 0 0 0 0-4m0 0H9.294c-.461 0-.692 0-.882-.082a1 1 0 0 1-.418-.337c-.12-.167-.167-.39-.261-.83L5.27 4.265c-.096-.451-.145-.677-.265-.845a1 1 0 0 0-.419-.338C4.397 3 4.167 3 3.707 3H3m3 3h12.873c.722 0 1.082 0 1.325.15a1 1 0 0 1 .435.579c.077.274-.022.621-.222 1.314l-1.385 4.8c-.12.415-.18.622-.3.776a1 1 0 0 1-.409.307c-.18.074-.396.074-.825.074H7.73M8 21a2 2 0 1 1 0-4 2 2 0 0 1 0 4"/></symbol>
<symbol id="heart" fill="none" viewBox="0 0 24 24"><path fill="var(--currentColor, #595959)" fill-rule="evenodd" d="M4.89 6.67C4.376 7.282 4 8.2 4 9.5c0 2.533 1.938 5.024 4.164 7.003A27.6 27.6 0 0 0 12 19.338a27.633 27.633 0 0 0 3.836-2.836C18.062 14.525 20 12.034 20 9.5c0-1.3-.376-2.218-.89-2.83a3.17 3.17 0 0 0-2.003-1.094c-1.562-.225-3.369.59-4.187 2.51a1 1 0 0 1-1.84 0c-.818-1.92-2.625-2.735-4.187-2.51A3.17 3.17 0 0 0 4.89 6.67M12 20.5l-.486.874-.003-.002-.007-.003-.023-.013a12 12 0 0 1-.384-.226 29.63 29.63 0 0 1-4.261-3.132C4.562 15.975 2 12.966 2 9.5c0-1.7.5-3.094 1.36-4.117a5.17 5.17 0 0 1 3.247-1.786c1.93-.278 4.02.467 5.393 2.166 1.373-1.699 3.463-2.444 5.393-2.166a5.17 5.17 0 0 1 3.247 1.786C21.5 6.406 22 7.8 22 9.5c0 3.467-2.562 6.476-4.836 8.497a29.6 29.6 0 0 1-4.645 3.359l-.023.013-.007.003-.002.002zm0 0 .486.874c-.302.168-.67.168-.972 0z" clip-rule="evenodd"/></symbol>
<symbol id="arrow-right" fill="none" viewBox="0 0 24 24"><path fill="var(--currentColor, #595959)" fill-rule="evenodd" d="M15.293 6.293a1 1 0 0 1 1.414 0l5 5a1 1 0 0 1 0 1.414l-5 5a1 1 0 0 1-1.414-1.414L18.586 13H3a1 1 0 1 1 0-2h15.586l-3.293-3.293a1 1 0 0 1 0-1.414" clip-rule="evenodd"/></symbol>
<symbol id="logo" fill="none" viewBox="0 0 121 30"><g clip-path="url(#a)"><path fill="var(--logoColor, #595959)" d="M27.138 12.65 17.35 2.862a1.25 1.25 0 0 0-2.125.713L14.313 10l-2.5 2.5-.413-.238A1.25 1.25 0 0 0 10 14.3l-1.437 1.462-.413-.237a1.25 1.25 0 0 0-1.388 2.037L5.3 19.013l-.4-.262a1.25 1.25 0 0 0-1.713.462 1.25 1.25 0 0 0 .313 1.576l-.638.637a1.2 1.2 0 0 0-.262.412 1.3 1.3 0 0 0-.1.476v3.937a1.25 1.25 0 0 0 1.25 1.25h3.912c.164-.002.325-.036.475-.1.155-.057.296-.147.413-.262L10.675 25l.412.238a1.25 1.25 0 0 0 1.713-.45 1.25 1.25 0 0 0-.3-1.588l1.463-1.45.412.238c.187.105.398.161.613.162a1.25 1.25 0 0 0 .75-2.15l1.462-1.45.413.238c.186.105.397.161.612.162A1.25 1.25 0 0 0 19 16.738l.988-.988 6.437-.912a1.25 1.25 0 0 0 1.012-.85 1.25 1.25 0 0 0-.3-1.338M7.15 25H5v-2.15l.713-.713 2.725 1.613zm3.112-3.125L7.5 20.313l1.425-1.425 2.712 1.562zm3.263-3.25L10.8 17.05l1.438-1.425L15 17.188zm3.263-3.262-2.726-1.613 1.426-1.425 2.15 2.15zm3.062-2.175-3.038-3.038.538-3.75 6.25 6.25zM48.679 11.09v2.38h-4.531V22h-2.94V11.09zM50.524 22V11.09h4.652q2.016 0 3.189.768 1.172.767 1.172 2.18 0 .888-.66 1.478-.662.59-1.833.795.98.071 1.669.448.695.369 1.058.958.37.59.37 1.307 0 .93-.498 1.598-.49.668-1.442 1.023-.945.355-2.308.355zm2.82-2.266h2.55q.631 0 .986-.298.362-.305.362-.83 0-.584-.362-.917-.355-.334-.987-.334h-2.55zm0-4.155h1.896q.454 0 .774-.127.326-.135.497-.384a1 1 0 0 0 .178-.59.91.91 0 0 0-.405-.788q-.406-.285-1.108-.284h-1.833zm13.632 6.634q-1.654 0-2.862-.703a4.8 4.8 0 0 1-1.854-1.975q-.653-1.271-.653-2.947 0-1.69.653-2.955a4.75 4.75 0 0 1 1.854-1.974q1.208-.71 2.862-.71t2.855.71a4.74 4.74 0 0 1 1.861 1.974q.654 1.265.654 2.955 0 1.676-.654 2.947a4.8 4.8 0 0 1-1.86 1.975q-1.2.703-2.856.703m.014-2.344q.753 0 1.258-.426.504-.434.76-1.179.262-.746.262-1.697t-.263-1.698q-.255-.746-.76-1.179-.504-.432-1.257-.433-.759 0-1.278.433-.51.434-.774 1.18-.255.745-.256 1.697 0 .951.256 1.697.263.745.774 1.18.519.425 1.278.425m6.762-.959h2.933q.021.54.483.853t1.193.312q.74 0 1.243-.34.504-.349.504-.995 0-.398-.199-.689a1.35 1.35 0 0 0-.553-.469 1.9 1.9 0 0 0-.824-.17h-1.57V15.43h1.57q.702 0 1.08-.326a1.03 1.03 0 0 0 .383-.817q0-.554-.398-.888-.39-.34-1.058-.34-.675 0-1.123.305-.44.298-.454.78h-2.919q.014-.978.59-1.697.582-.717 1.562-1.107.987-.39 2.209-.391 1.335 0 2.3.376.975.37 1.492 1.059.525.689.526 1.64 0 .866-.568 1.449-.569.582-1.591.831v.114q.675.042 1.221.362.547.32.874.88.327.555.327 1.314 0 1.016-.597 1.74-.59.724-1.633 1.116-1.038.383-2.38.383-1.306 0-2.343-.376-1.03-.384-1.641-1.122-.604-.739-.64-1.805m10.236 6.286v-5.597h.838q.363-.227.582-.724.228-.497.37-1.172.15-.675.227-1.456.085-.788.15-1.59l.283-3.566h8.367v8.508h1.69v5.597h-2.883V22h-6.67v3.196zm3.85-5.597h4.112v-6.178h-2.94l-.114 1.235q-.12 1.748-.348 2.969-.228 1.215-.71 1.974m13.311-1.59 3.927-6.918h2.983V22h-2.883v-6.939L101.262 22h-3.004V11.09h2.891zM110.485 22V11.09h3.025v4.234h.853l2.968-4.233h3.551l-3.856 5.412L120.925 22h-3.594l-2.691-3.87h-1.13V22z"/></g></symbol>
<symbol id="more-grid" fill="none" viewBox="0 0 24 24"><path stroke="#fff" stroke-linecap="round" stroke-linejoin="round" stroke-width="2" d="M17 18a1 1 0 1 0 2 0 1 1 0 0 0-2 0M11 18a1 1 0 1 0 2 0 1 1 0 0 0-2 0M5 18a1 1 0 1 0 2 0 1 1 0 0 0-2 0M17 12a1 1 0 1 0 2 0 1 1 0 0 0-2 0M11 12a1 1 0 1 0 2 0 1 1 0 0 0-2 0M5 12a1 1 0 1 0 2 0 1 1 0 0 0-2 0M17 6a1 1 0 1 0 2 0 1 1 0 0 0-2 0M11 6a1 1 0 1 0 2 0 1 1 0 0 0-2 0M5 6a1 1 0 1 0 2 0 1 1 0 0 0-2 0"/></symbol>
<symbol id="user" fill="none" viewBox="0 0 24 24"><path stroke="var(--currentColor, #595959)" stroke-linecap="round" stroke-linejoin="round" stroke-width="2" d="M20 21c0-2.761-3.582-5-8-5s-8 2.239-8 5m8-8a5 5 0 1 1 0-10 5 5 0 0 1 0 10"/></symbol>
<symbol id="search" fill="none" viewBox="0 0 24 24"><path stroke="#595959" stroke-linecap="round" stroke-linejoin="round" stroke-width="2" d="m15 15 6 6m-11-4a7 7 0 1 1 0-14 7 7 0 0 1 0 14"/></symbol>
<symbol id="remove-minus" fill="none" viewBox="0 0 24 24"><path stroke="var(--currentColor, #595959)" stroke-linecap="round" stroke-linejoin="round" stroke-width="2" d="M6 12h12"/></symbol>
<symbol id="vk" fill="none" viewBox="0 0 24 24"><path fill="var(--currentColor, #282828)" d="M15.073 2H8.938C3.332 2 2 3.333 2 8.927v6.136C2 20.667 3.323 22 8.927 22h6.136C20.667 22 22 20.677 22 15.073V8.938C22 3.332 20.677 2 15.073 2m3.073 14.27h-1.459c-.552 0-.718-.447-1.708-1.437-.864-.833-1.229-.937-1.448-.937-.302 0-.385.083-.385.5v1.312c0 .355-.115.563-1.042.563a5.7 5.7 0 0 1-4.448-2.667 11.6 11.6 0 0 1-2.302-4.833c0-.219.083-.417.5-.417h1.459c.375 0 .51.167.656.552.708 2.084 1.916 3.896 2.406 3.896.188 0 .27-.083.27-.552v-2.146c-.062-.979-.582-1.062-.582-1.416a.36.36 0 0 1 .374-.334h2.292c.313 0 .417.156.417.531v2.896c0 .313.135.417.229.417.188 0 .333-.104.677-.448a12 12 0 0 0 1.792-2.98.63.63 0 0 1 .635-.416h1.459c.437 0 .53.219.437.531a18.2 18.2 0 0 1-1.958 3.365c-.157.24-.22.365 0 .646.145.219.656.646 1 1.052.5.499.915 1.076 1.229 1.708.125.406-.084.614-.5.614"/></symbol>
<symbol id="telegram" fill="none" viewBox="0 0 24 24"><path fill="var(--currentColor, #282828)" d="M12 2C6.48 2 2 6.48 2 12s4.48 10 10 10 10-4.48 10-10S17.52 2 12 2m4.64 6.8c-.15 1.58-.8 5.42-1.13 7.19-.14.75-.42 1-.68 1.03-.58.05-1.02-.38-1.58-.75-.88-.58-1.38-.94-2.23-1.5-.99-.65-.35-1.01.22-1.59.15-.15 2.71-2.48 2.76-2.69a.2.2 0 0 0-.05-.18c-.06-.05-.14-.03-.21-.02-.09.02-1.49.95-4.22 2.79-.4.27-.76.41-1.08.4-.36-.01-1.04-.2-1.55-.37-.63-.2-1.12-.31-1.08-.66.02-.18.27-.36.74-.55 2.92-1.27 4.86-2.11 5.83-2.51 2.78-1.16 3.35-1.36 3.73-1.36.08 0 .27.02.39.12.1.08.13.19.14.27-.01.06.01.24 0 .38"/></symbol>
<symbol id="whatsapp" fill="none" viewBox="0 0 24 24"><path fill="var(--currentColor, #282828)" d="M12.001 2c5.523 0 10 4.477 10 10s-4.477 10-10 10a9.95 9.95 0 0 1-5.03-1.355L2.005 22l1.352-4.968A9.95 9.95 0 0 1 2.001 12c0-5.523 4.477-10 10-10M8.593 7.3l-.2.008a1 1 0 0 0-.372.1 1.3 1.3 0 0 0-.294.228c-.12.113-.188.211-.261.306A2.73 2.73 0 0 0 6.9 9.62c.002.49.13.967.33 1.413.409.902 1.082 1.857 1.97 2.742.214.213.424.427.65.626a9.45 9.45 0 0 0 3.84 2.046l.568.087c.185.01.37-.004.556-.013a2 2 0 0 0 .833-.231q.196-.1.383-.22.001.002.125-.09c.135-.1.218-.171.33-.288q.126-.13.21-.302c.078-.163.156-.474.188-.733.024-.198.017-.306.014-.373-.004-.107-.093-.218-.19-.265l-.582-.261s-.87-.379-1.402-.621a.5.5 0 0 0-.176-.041.48.48 0 0 0-.378.127c-.005-.002-.072.055-.795.931a.35.35 0 0 1-.368.13 1.4 1.4 0 0 1-.191-.066c-.124-.052-.167-.072-.252-.108a6 6 0 0 1-1.575-1.003c-.126-.11-.243-.23-.363-.346a6.3 6.3 0 0 1-1.02-1.268l-.059-.095a1 1 0 0 1-.102-.205c-.038-.147.061-.265.061-.265s.243-.266.356-.41c.11-.14.203-.276.263-.373.118-.19.155-.385.093-.536q-.42-1.026-.868-2.041c-.059-.134-.234-.23-.393-.249l-.162-.016a3 3 0 0 0-.403.004z"/></symbol>
<symbol id="youtube" fill="none" viewBox="0 0 24 24"><path fill="var(--currentColor, #282828)" d="m10 15 5.19-3L10 9zm11.56-7.83c.13.47.22 1.1.28 1.9.07.8.1 1.49.1 2.09L22 12c0 2.19-.16 3.8-.44 4.83-.25.9-.83 1.48-1.73 1.73-.47.13-1.33.22-2.65.28-1.3.07-2.49.1-3.59.1L12 19c-4.19 0-6.8-.16-7.83-.44-.9-.25-1.48-.83-1.73-1.73-.13-.47-.22-1.1-.28-1.9-.07-.8-.1-1.49-.1-2.09L2 12c0-2.19.16-3.8.44-4.83.25-.9.83-1.48 1.73-1.73.47-.13 1.33-.22 2.65-.28 1.3-.07 2.49-.1 3.59-.1L12 5c4.19 0 6.8.16 7.83.44.9.25 1.48.83 1.73 1.73"/></symbol>
</svg>