<svg
  width="121"
  height="64"
  viewBox="0 0 121 64"
  fill="none"
  xmlns="http://www.w3.org/2000/svg"
>
  <path
    d="M27.1375 29.65L17.35 19.8625C17.1856 19.6972 16.9783 19.5811 16.7514 19.5274C16.5246 19.4737 16.2872 19.4845 16.0662 19.5586C15.8451 19.6328 15.6492 19.7672 15.5006 19.9468C15.3519 20.1264 15.2565 20.344 15.225 20.575L14.3125 27L11.8125 29.5L11.4 29.2625C11.1309 29.1316 10.8237 29.1017 10.5344 29.1781C10.245 29.2545 9.99266 29.4321 9.82318 29.6788C9.6537 29.9254 9.57834 30.2247 9.61078 30.5222C9.64323 30.8197 9.78134 31.0957 10 31.3L8.5625 32.7625L8.15 32.525C7.88153 32.4017 7.57808 32.3775 7.29346 32.4566C7.00884 32.5358 6.76146 32.7132 6.59518 32.9574C6.42889 33.2015 6.35447 33.4967 6.3851 33.7906C6.41573 34.0844 6.54943 34.3579 6.7625 34.5625L5.3 36.0125L4.9 35.75C4.75733 35.6673 4.59972 35.6137 4.43625 35.5923C4.27278 35.5708 4.10667 35.5819 3.9475 35.6248C3.78832 35.6678 3.63922 35.7419 3.50879 35.8427C3.37835 35.9436 3.26916 36.0693 3.1875 36.2125C3.04633 36.4699 3.00028 36.7688 3.05742 37.0568C3.11456 37.3448 3.27124 37.6035 3.5 37.7875L2.8625 38.425C2.74675 38.5423 2.65727 38.6829 2.6 38.8375C2.53595 38.9878 2.50197 39.1492 2.5 39.3125V43.25C2.5 43.5815 2.6317 43.8995 2.86612 44.1339C3.10054 44.3683 3.41848 44.5 3.75 44.5H7.6625C7.82585 44.498 7.98722 44.464 8.1375 44.4C8.29205 44.3427 8.43266 44.2532 8.55 44.1375L10.675 42L11.0875 42.2375C11.2294 42.3207 11.3864 42.375 11.5493 42.3974C11.7123 42.4198 11.8781 42.4098 12.0372 42.368C12.1963 42.3262 12.3455 42.2534 12.4764 42.1538C12.6073 42.0542 12.7173 41.9297 12.8 41.7875C12.9459 41.5302 12.9959 41.2294 12.9409 40.9388C12.886 40.6481 12.7298 40.3863 12.5 40.2L13.9625 38.75L14.375 38.9875C14.5618 39.0934 14.7728 39.1493 14.9875 39.15C15.2268 39.1284 15.4548 39.0384 15.6442 38.8906C15.8336 38.7428 15.9764 38.5436 16.0555 38.3168C16.1347 38.0899 16.1468 37.8451 16.0904 37.6116C16.034 37.378 15.9114 37.1657 15.7375 37L17.2 35.55L17.6125 35.7875C17.7993 35.8934 18.0103 35.9493 18.225 35.95C18.4803 35.9454 18.728 35.8628 18.9349 35.7133C19.1418 35.5637 19.298 35.3544 19.3824 35.1134C19.4668 34.8725 19.4754 34.6115 19.407 34.3655C19.3387 34.1195 19.1966 33.9003 19 33.7375L19.9875 32.75L26.425 31.8375C26.6563 31.8046 26.8738 31.7075 27.0528 31.5573C27.2318 31.4071 27.3651 31.2097 27.4375 30.9875C27.5232 30.7596 27.5405 30.5116 27.4872 30.274C27.4339 30.0364 27.3123 29.8195 27.1375 29.65ZM7.15 42H5V39.85L5.7125 39.1375L8.4375 40.75L7.15 42ZM10.2625 38.875L7.5 37.3125L8.925 35.8875L11.6375 37.45L10.2625 38.875ZM13.525 35.625L10.8 34.05L12.2375 32.625L15 34.1875L13.525 35.625ZM16.7875 32.3625L14.0625 30.75L15.4875 29.325L17.6375 31.475L16.7875 32.3625ZM19.85 30.1875L16.8125 27.15L17.35 23.4L23.6 29.65L19.85 30.1875Z"
    fill="var(--currentColor, #595959)"
  />
  <path
    d="M48.679 28.0909V30.4702H44.1477V39H41.2074V28.0909H48.679ZM50.5238 39V28.0909H55.1758C56.5205 28.0909 57.5835 28.3466 58.3647 28.858C59.146 29.3693 59.5366 30.0961 59.5366 31.0384C59.5366 31.6302 59.3164 32.1226 58.8761 32.5156C58.4357 32.9086 57.8249 33.1738 57.0437 33.3111C57.6971 33.3584 58.2534 33.5076 58.7127 33.7585C59.1767 34.0047 59.5295 34.3243 59.771 34.7173C60.0172 35.1103 60.1403 35.5459 60.1403 36.0241C60.1403 36.6444 59.9746 37.1771 59.6431 37.6222C59.3164 38.0672 58.8358 38.4081 58.2013 38.6449C57.5716 38.8816 56.8022 39 55.8931 39H50.5238ZM53.3434 36.7344H55.8931C56.3145 36.7344 56.6436 36.6349 56.8803 36.4361C57.1218 36.2325 57.2425 35.9555 57.2425 35.6051C57.2425 35.2169 57.1218 34.9115 56.8803 34.6889C56.6436 34.4664 56.3145 34.3551 55.8931 34.3551H53.3434V36.7344ZM53.3434 32.5795H55.2397C55.5427 32.5795 55.8008 32.5369 56.0138 32.4517C56.2317 32.3617 56.3974 32.2339 56.511 32.0682C56.6294 31.9025 56.6886 31.706 56.6886 31.4787C56.6886 31.1425 56.5536 30.8797 56.2837 30.6903C56.0138 30.5009 55.6445 30.4062 55.1758 30.4062H53.3434V32.5795ZM66.9762 39.2131C65.873 39.2131 64.9189 38.9787 64.114 38.5099C63.3138 38.0365 62.6959 37.3783 62.2603 36.5355C61.8247 35.688 61.6069 34.7055 61.6069 33.5881C61.6069 32.4612 61.8247 31.4763 62.2603 30.6335C62.6959 29.786 63.3138 29.1278 64.114 28.6591C64.9189 28.1856 65.873 27.9489 66.9762 27.9489C68.0794 27.9489 69.0311 28.1856 69.8313 28.6591C70.6362 29.1278 71.2565 29.786 71.6921 30.6335C72.1277 31.4763 72.3455 32.4612 72.3455 33.5881C72.3455 34.7055 72.1277 35.688 71.6921 36.5355C71.2565 37.3783 70.6362 38.0365 69.8313 38.5099C69.0311 38.9787 68.0794 39.2131 66.9762 39.2131ZM66.9904 36.8693C67.4923 36.8693 67.9113 36.7273 68.2475 36.4432C68.5837 36.1544 68.837 35.7614 69.0075 35.2642C69.1826 34.767 69.2702 34.2012 69.2702 33.5668C69.2702 32.9323 69.1826 32.3665 69.0075 31.8693C68.837 31.3722 68.5837 30.9792 68.2475 30.6903C67.9113 30.4015 67.4923 30.2571 66.9904 30.2571C66.4838 30.2571 66.0576 30.4015 65.712 30.6903C65.3711 30.9792 65.113 31.3722 64.9379 31.8693C64.7674 32.3665 64.6822 32.9323 64.6822 33.5668C64.6822 34.2012 64.7674 34.767 64.9379 35.2642C65.113 35.7614 65.3711 36.1544 65.712 36.4432C66.0576 36.7273 66.4838 36.8693 66.9904 36.8693ZM73.7518 35.9105H76.685C76.6992 36.2704 76.8602 36.5545 77.168 36.7628C77.4757 36.9711 77.8735 37.0753 78.3612 37.0753C78.8536 37.0753 79.2679 36.9616 79.604 36.7344C79.9402 36.5024 80.1083 36.1709 80.1083 35.7401C80.1083 35.4749 80.042 35.2453 79.9094 35.0511C79.7769 34.8523 79.5922 34.696 79.3555 34.5824C79.1187 34.4687 78.8441 34.4119 78.5316 34.4119H76.962V32.4304H78.5316C79.0004 32.4304 79.3602 32.3215 79.6112 32.1037C79.8668 31.8859 79.9947 31.6136 79.9947 31.2869C79.9947 30.9176 79.8621 30.6217 79.5969 30.3991C79.3365 30.1719 78.9838 30.0582 78.5387 30.0582C78.0889 30.0582 77.7148 30.16 77.4165 30.3636C77.123 30.5625 76.9715 30.8229 76.962 31.1449H74.043C74.0524 30.4915 74.2489 29.9257 74.6325 29.4474C75.0207 28.9692 75.5415 28.5999 76.195 28.3395C76.8531 28.0791 77.5894 27.9489 78.4038 27.9489C79.2939 27.9489 80.061 28.0743 80.7049 28.3253C81.3536 28.5715 81.8507 28.9242 82.1964 29.3835C82.5468 29.8428 82.7219 30.3897 82.7219 31.0241C82.7219 31.6018 82.5326 32.0848 82.1538 32.473C81.775 32.8613 81.2447 33.1383 80.5629 33.304V33.4176C81.0127 33.446 81.4199 33.5668 81.7844 33.7798C82.149 33.9929 82.4402 34.2865 82.658 34.6605C82.8758 35.0298 82.9847 35.4678 82.9847 35.9744C82.9847 36.6515 82.7859 37.2315 82.3881 37.7145C81.9951 38.1974 81.4506 38.5691 80.7546 38.8295C80.0633 39.0852 79.2702 39.2131 78.3754 39.2131C77.5041 39.2131 76.7229 39.0876 76.0316 38.8366C75.3451 38.581 74.7982 38.2069 74.391 37.7145C73.9885 37.2221 73.7754 36.6207 73.7518 35.9105ZM83.9879 42.196V36.5994H84.826C85.0675 36.4479 85.2616 36.2064 85.4084 35.875C85.5599 35.5436 85.683 35.1529 85.7777 34.7031C85.8771 34.2533 85.9529 33.768 86.005 33.2472C86.0618 32.7216 86.1115 32.1913 86.1541 31.6562L86.4382 28.0909H94.8047V36.5994H96.495V42.196H93.6115V39H86.9425V42.196H83.9879ZM87.8374 36.5994H91.9496V30.4205H89.0092L88.8956 31.6562C88.8151 32.821 88.6991 33.8106 88.5476 34.625C88.3961 35.4347 88.1593 36.0928 87.8374 36.5994ZM101.149 35.0085L105.076 28.0909H108.059V39H105.176V32.0611L101.262 39H98.2582V28.0909H101.149V35.0085ZM110.485 39V28.0909H113.51V32.3239H114.363L117.331 28.0909H120.882L117.026 33.5028L120.925 39H117.331L114.64 35.1293H113.51V39H110.485Z"
    fill="var(--currentColor, #595959)"
  />
</svg>
