<svg width="121" height="30" viewBox="0 0 121 30" fill="none" xmlns="http://www.w3.org/2000/svg">
<g id="Logo">
<g clip-path="url(#clip0_132_6005)">
<g id="uil:screw">
<path id="Vector" d="M27.1375 12.65L17.35 2.8625C17.1856 2.69717 16.9783 2.5811 16.7514 2.52741C16.5246 2.47372 16.2872 2.48454 16.0662 2.55865C15.8451 2.63276 15.6492 2.76721 15.5006 2.94681C15.3519 3.12641 15.2565 3.344 15.225 3.575L14.3125 10L11.8125 12.5L11.4 12.2625C11.1309 12.1316 10.8237 12.1017 10.5344 12.1781C10.245 12.2545 9.99266 12.4321 9.82318 12.6788C9.6537 12.9254 9.57834 13.2247 9.61078 13.5222C9.64323 13.8197 9.78134 14.0957 10 14.3L8.5625 15.7625L8.15 15.525C7.88153 15.4017 7.57808 15.3775 7.29346 15.4566C7.00884 15.5358 6.76146 15.7132 6.59518 15.9574C6.42889 16.2015 6.35447 16.4967 6.3851 16.7906C6.41573 17.0844 6.54943 17.3579 6.7625 17.5625L5.3 19.0125L4.9 18.75C4.75733 18.6673 4.59972 18.6137 4.43625 18.5923C4.27278 18.5708 4.10667 18.5819 3.9475 18.6248C3.78832 18.6678 3.63922 18.7419 3.50879 18.8427C3.37835 18.9436 3.26916 19.0693 3.1875 19.2125C3.04633 19.4699 3.00028 19.7688 3.05742 20.0568C3.11456 20.3448 3.27124 20.6035 3.5 20.7875L2.8625 21.425C2.74675 21.5423 2.65727 21.6829 2.6 21.8375C2.53595 21.9878 2.50197 22.1492 2.5 22.3125V26.25C2.5 26.5815 2.6317 26.8995 2.86612 27.1339C3.10054 27.3683 3.41848 27.5 3.75 27.5H7.6625C7.82585 27.498 7.98722 27.464 8.1375 27.4C8.29205 27.3427 8.43266 27.2532 8.55 27.1375L10.675 25L11.0875 25.2375C11.2294 25.3207 11.3864 25.375 11.5493 25.3974C11.7123 25.4198 11.8781 25.4098 12.0372 25.368C12.1963 25.3262 12.3455 25.2534 12.4764 25.1538C12.6073 25.0542 12.7173 24.9297 12.8 24.7875C12.9459 24.5302 12.9959 24.2294 12.9409 23.9388C12.886 23.6481 12.7298 23.3863 12.5 23.2L13.9625 21.75L14.375 21.9875C14.5618 22.0934 14.7728 22.1493 14.9875 22.15C15.2268 22.1284 15.4548 22.0384 15.6442 21.8906C15.8336 21.7428 15.9764 21.5436 16.0555 21.3168C16.1347 21.0899 16.1468 20.8451 16.0904 20.6116C16.034 20.378 15.9114 20.1657 15.7375 20L17.2 18.55L17.6125 18.7875C17.7993 18.8934 18.0103 18.9493 18.225 18.95C18.4803 18.9454 18.728 18.8628 18.9349 18.7133C19.1418 18.5637 19.298 18.3544 19.3824 18.1134C19.4668 17.8725 19.4754 17.6115 19.407 17.3655C19.3387 17.1195 19.1966 16.9003 19 16.7375L19.9875 15.75L26.425 14.8375C26.6563 14.8046 26.8738 14.7075 27.0528 14.5573C27.2318 14.4071 27.3651 14.2097 27.4375 13.9875C27.5232 13.7596 27.5405 13.5116 27.4872 13.274C27.4339 13.0364 27.3123 12.8195 27.1375 12.65ZM7.15 25H5V22.85L5.7125 22.1375L8.4375 23.75L7.15 25ZM10.2625 21.875L7.5 20.3125L8.925 18.8875L11.6375 20.45L10.2625 21.875ZM13.525 18.625L10.8 17.05L12.2375 15.625L15 17.1875L13.525 18.625ZM16.7875 15.3625L14.0625 13.75L15.4875 12.325L17.6375 14.475L16.7875 15.3625ZM19.85 13.1875L16.8125 10.15L17.35 6.4L23.6 12.65L19.85 13.1875Z" fill="var(--logoColor, #595959)"/>
</g>
<path id="&#208;&#179;&#208;&#178;&#208;&#190;&#208;&#183;&#208;&#180;&#208;&#184;&#208;&#186;" d="M48.679 11.0909V13.4702H44.1477V22H41.2074V11.0909H48.679ZM50.5238 22V11.0909H55.1758C56.5205 11.0909 57.5835 11.3466 58.3647 11.858C59.146 12.3693 59.5366 13.0961 59.5366 14.0384C59.5366 14.6302 59.3164 15.1226 58.8761 15.5156C58.4357 15.9086 57.8249 16.1738 57.0437 16.3111C57.6971 16.3584 58.2534 16.5076 58.7127 16.7585C59.1767 17.0047 59.5295 17.3243 59.771 17.7173C60.0172 18.1103 60.1403 18.5459 60.1403 19.0241C60.1403 19.6444 59.9746 20.1771 59.6431 20.6222C59.3164 21.0672 58.8358 21.4081 58.2013 21.6449C57.5716 21.8816 56.8022 22 55.8931 22H50.5238ZM53.3434 19.7344H55.8931C56.3145 19.7344 56.6436 19.6349 56.8803 19.4361C57.1218 19.2325 57.2425 18.9555 57.2425 18.6051C57.2425 18.2169 57.1218 17.9115 56.8803 17.6889C56.6436 17.4664 56.3145 17.3551 55.8931 17.3551H53.3434V19.7344ZM53.3434 15.5795H55.2397C55.5427 15.5795 55.8008 15.5369 56.0138 15.4517C56.2317 15.3617 56.3974 15.2339 56.511 15.0682C56.6294 14.9025 56.6886 14.706 56.6886 14.4787C56.6886 14.1425 56.5536 13.8797 56.2837 13.6903C56.0138 13.5009 55.6445 13.4062 55.1758 13.4062H53.3434V15.5795ZM66.9762 22.2131C65.873 22.2131 64.9189 21.9787 64.114 21.5099C63.3138 21.0365 62.6959 20.3783 62.2603 19.5355C61.8247 18.688 61.6069 17.7055 61.6069 16.5881C61.6069 15.4612 61.8247 14.4763 62.2603 13.6335C62.6959 12.786 63.3138 12.1278 64.114 11.6591C64.9189 11.1856 65.873 10.9489 66.9762 10.9489C68.0794 10.9489 69.0311 11.1856 69.8313 11.6591C70.6362 12.1278 71.2565 12.786 71.6921 13.6335C72.1277 14.4763 72.3455 15.4612 72.3455 16.5881C72.3455 17.7055 72.1277 18.688 71.6921 19.5355C71.2565 20.3783 70.6362 21.0365 69.8313 21.5099C69.0311 21.9787 68.0794 22.2131 66.9762 22.2131ZM66.9904 19.8693C67.4923 19.8693 67.9113 19.7273 68.2475 19.4432C68.5837 19.1544 68.837 18.7614 69.0075 18.2642C69.1826 17.767 69.2702 17.2012 69.2702 16.5668C69.2702 15.9323 69.1826 15.3665 69.0075 14.8693C68.837 14.3722 68.5837 13.9792 68.2475 13.6903C67.9113 13.4015 67.4923 13.2571 66.9904 13.2571C66.4838 13.2571 66.0576 13.4015 65.712 13.6903C65.3711 13.9792 65.113 14.3722 64.9379 14.8693C64.7674 15.3665 64.6822 15.9323 64.6822 16.5668C64.6822 17.2012 64.7674 17.767 64.9379 18.2642C65.113 18.7614 65.3711 19.1544 65.712 19.4432C66.0576 19.7273 66.4838 19.8693 66.9904 19.8693ZM73.7518 18.9105H76.685C76.6992 19.2704 76.8602 19.5545 77.168 19.7628C77.4757 19.9711 77.8735 20.0753 78.3612 20.0753C78.8536 20.0753 79.2679 19.9616 79.604 19.7344C79.9402 19.5024 80.1083 19.1709 80.1083 18.7401C80.1083 18.4749 80.042 18.2453 79.9094 18.0511C79.7769 17.8523 79.5922 17.696 79.3555 17.5824C79.1187 17.4687 78.8441 17.4119 78.5316 17.4119H76.962V15.4304H78.5316C79.0004 15.4304 79.3602 15.3215 79.6112 15.1037C79.8668 14.8859 79.9947 14.6136 79.9947 14.2869C79.9947 13.9176 79.8621 13.6217 79.5969 13.3991C79.3365 13.1719 78.9838 13.0582 78.5387 13.0582C78.0889 13.0582 77.7148 13.16 77.4165 13.3636C77.123 13.5625 76.9715 13.8229 76.962 14.1449H74.043C74.0524 13.4915 74.2489 12.9257 74.6325 12.4474C75.0207 11.9692 75.5415 11.5999 76.195 11.3395C76.8531 11.0791 77.5894 10.9489 78.4038 10.9489C79.2939 10.9489 80.061 11.0743 80.7049 11.3253C81.3536 11.5715 81.8507 11.9242 82.1964 12.3835C82.5468 12.8428 82.7219 13.3897 82.7219 14.0241C82.7219 14.6018 82.5326 15.0848 82.1538 15.473C81.775 15.8613 81.2447 16.1383 80.5629 16.304V16.4176C81.0127 16.446 81.4199 16.5668 81.7844 16.7798C82.149 16.9929 82.4402 17.2865 82.658 17.6605C82.8758 18.0298 82.9847 18.4678 82.9847 18.9744C82.9847 19.6515 82.7859 20.2315 82.3881 20.7145C81.9951 21.1974 81.4506 21.5691 80.7546 21.8295C80.0633 22.0852 79.2702 22.2131 78.3754 22.2131C77.5041 22.2131 76.7229 22.0876 76.0316 21.8366C75.3451 21.581 74.7982 21.2069 74.391 20.7145C73.9885 20.2221 73.7754 19.6207 73.7518 18.9105ZM83.9879 25.196V19.5994H84.826C85.0675 19.4479 85.2616 19.2064 85.4084 18.875C85.5599 18.5436 85.683 18.1529 85.7777 17.7031C85.8771 17.2533 85.9529 16.768 86.005 16.2472C86.0618 15.7216 86.1115 15.1913 86.1541 14.6562L86.4382 11.0909H94.8047V19.5994H96.495V25.196H93.6115V22H86.9425V25.196H83.9879ZM87.8374 19.5994H91.9496V13.4205H89.0092L88.8956 14.6562C88.8151 15.821 88.6991 16.8106 88.5476 17.625C88.3961 18.4347 88.1593 19.0928 87.8374 19.5994ZM101.149 18.0085L105.076 11.0909H108.059V22H105.176V15.0611L101.262 22H98.2582V11.0909H101.149V18.0085ZM110.485 22V11.0909H113.51V15.3239H114.363L117.331 11.0909H120.882L117.026 16.5028L120.925 22H117.331L114.64 18.1293H113.51V22H110.485Z" fill="var(--logoColor, #595959)"/>
</g>
</g>
<defs>
<clipPath id="clip0_132_6005">
<rect width="121" height="30" rx="10" fill="white"/>
</clipPath>
</defs>
</svg>
