<svg width="24" height="24" viewBox="0 0 24 24" fill="none" xmlns="http://www.w3.org/2000/svg">
<g id="gravity-ui:pipeline">
<path id="Vector" fill-rule="evenodd" clip-rule="evenodd" d="M0 2.625C0 2.32663 0.118526 2.04048 0.329505 1.8295C0.540483 1.61853 0.826631 1.5 1.125 1.5H10.125C10.4234 1.5 10.7095 1.61853 10.9205 1.8295C11.1315 2.04048 11.25 2.32663 11.25 2.625C11.25 2.92337 11.1315 3.20952 10.9205 3.4205C10.7095 3.63147 10.4234 3.75 10.125 3.75H9.75V7.125C9.75 7.32391 9.82902 7.51468 9.96967 7.65533C10.1103 7.79598 10.3011 7.875 10.5 7.875H13.875C16.1625 7.875 18.3563 8.7837 19.9738 10.4012C21.5913 12.0187 22.5 14.2125 22.5 16.5V20.25H22.875C23.1734 20.25 23.4595 20.3685 23.6705 20.5795C23.8815 20.7905 24 21.0766 24 21.375C24 21.6734 23.8815 21.9595 23.6705 22.1705C23.4595 22.3815 23.1734 22.5 22.875 22.5H13.875C13.5766 22.5 13.2905 22.3815 13.0795 22.1705C12.8685 21.9595 12.75 21.6734 12.75 21.375C12.75 21.0766 12.8685 20.7905 13.0795 20.5795C13.2905 20.3685 13.5766 20.25 13.875 20.25H14.25V16.875C14.25 16.6761 14.171 16.4853 14.0303 16.3447C13.8897 16.204 13.6989 16.125 13.5 16.125H10.125C7.83751 16.125 5.64371 15.2163 4.0262 13.5988C2.4087 11.9813 1.5 9.78749 1.5 7.5V3.75H1.125C0.826631 3.75 0.540483 3.63147 0.329505 3.4205C0.118526 3.20952 0 2.92337 0 2.625ZM16.5 20.25H20.25V16.5C20.25 14.8092 19.5784 13.1877 18.3828 11.9922C17.1873 10.7966 15.5658 10.125 13.875 10.125H13.125V13.875H13.5C14.2956 13.875 15.0587 14.1911 15.6213 14.7537C16.1839 15.3163 16.5 16.0794 16.5 16.875V20.25ZM3.75 3.75H7.5V7.125C7.5 7.92065 7.81607 8.68371 8.37868 9.24632C8.94129 9.80893 9.70435 10.125 10.5 10.125H10.875V13.875H10.125C8.43425 13.875 6.81274 13.2034 5.61719 12.0078C4.42165 10.8123 3.75 9.19075 3.75 7.5V3.75Z" fill="#595959"/>
</g>
</svg>
