<svg width="24" height="24" viewBox="0 0 24 24" fill="none" xmlns="http://www.w3.org/2000/svg">
<g id="power-supply">
<path id="Vector (Stroke)" fill-rule="evenodd" clip-rule="evenodd" d="M9 1C9.55229 1 10 1.44772 10 2V3.5H14V2C14 1.44772 14.4477 1 15 1C15.5523 1 16 1.44772 16 2V3.5H19C19.4664 3.5 19.8709 3.82247 19.9749 4.27718L20.9749 8.65218C21.0222 8.85909 21.0024 9.07569 20.9184 9.27062L17.4184 17.3956C17.2604 17.7624 16.8994 18 16.5 18H13V21H19V18.316C19 17.7637 19.4477 17.316 20 17.316C20.5523 17.316 21 17.7637 21 18.316V22C21 22.5523 20.5523 23 20 23H12C11.4477 23 11 22.5523 11 22V18H7.5C7.10065 18 6.73958 17.7624 6.58159 17.3956L3.08159 9.27062C2.99762 9.07569 2.97785 8.85909 3.02514 8.65218L4.02514 4.27718C4.12908 3.82247 4.53356 3.5 5 3.5H8V2C8 1.44772 8.44772 1 9 1ZM5.79722 5.5L5.04765 8.77938L8.15807 16H15.8419L18.9524 8.77938L18.2028 5.5H5.79722ZM8 10.5C8 9.94772 8.44772 9.5 9 9.5H15C15.5523 9.5 16 9.94772 16 10.5C16 11.0523 15.5523 11.5 15 11.5H9C8.44772 11.5 8 11.0523 8 10.5Z" fill="#595959"/>
</g>
</svg>
