<svg
  width="20"
  height="20"
  viewBox="0 0 20 20"
  fill="none"
  xmlns="http://www.w3.org/2000/svg"
>
  <g id="State=Stroked">
    <path
      id="Vector"
      d="M10.4486 14.9109L10.4485 14.9109C10.1696 14.7547 9.83099 14.7559 9.5536 14.9112C9.55358 14.9112 9.55357 14.9112 9.55355 14.9112L5.31398 17.2838L6.26053 12.5196C6.32244 12.2081 6.2191 11.885 5.9842 11.6678L2.4179 8.36954L7.24149 7.79741C7.2415 7.79741 7.2415 7.79741 7.24151 7.79741C7.5571 7.75998 7.8323 7.56168 7.96624 7.2713L10.0008 2.86036L12.0354 7.2712C12.1686 7.55991 12.4419 7.75992 12.7593 7.79756L17.583 8.36952L14.017 11.6678C13.7825 11.8847 13.6785 12.2072 13.7405 12.5193C13.7405 12.5193 13.7405 12.5193 13.7405 12.5193L14.687 17.284L10.4486 14.9109ZM5.15698 17.3716C5.15703 17.3716 5.15708 17.3716 5.15713 17.3716L5.15702 17.3716L5.15698 17.3716ZM5.27884 17.4606C5.27884 17.4607 5.27883 17.4607 5.27883 17.4607L5.27884 17.4606ZM2.23851 8.39082L2.23853 8.39082L2.23851 8.39082ZM10.0764 2.69648C10.0764 2.69652 10.0764 2.69656 10.0764 2.69661L10.0764 2.69648L10.0007 2.66157L10.0764 2.69648ZM17.7154 8.24701L17.7154 8.24704L17.7154 8.24701ZM14.7221 17.4607C14.7221 17.4607 14.7221 17.4607 14.7221 17.4606L14.7221 17.4607L14.7221 17.4607Z"
      stroke="#595959"
      stroke-linecap="round"
      stroke-linejoin="round"
    />
  </g>
</svg>
