<svg
  width="25"
  height="24"
  viewBox="0 0 25 24"
  fill="none"
  xmlns="http://www.w3.org/2000/svg"
>
  <path
    d="M14.5 10V17M10.5 10V17M6.5 6V17.8C6.5 18.9201 6.5 19.4798 6.71799 19.9076C6.90973 20.2839 7.21547 20.5905 7.5918 20.7822C8.0192 21 8.57899 21 9.69691 21H15.3031C16.421 21 16.98 21 17.4074 20.7822C17.7837 20.5905 18.0905 20.2839 18.2822 19.9076C18.5 19.4802 18.5 18.921 18.5 17.8031V6M6.5 6H8.5M6.5 6H4.5M8.5 6H16.5M8.5 6C8.5 5.06812 8.5 4.60241 8.65224 4.23486C8.85523 3.74481 9.24432 3.35523 9.73438 3.15224C10.1019 3 10.5681 3 11.5 3H13.5C14.4319 3 14.8978 3 15.2654 3.15224C15.7554 3.35523 16.1447 3.74481 16.3477 4.23486C16.4999 4.6024 16.5 5.06812 16.5 6M16.5 6H18.5M18.5 6H20.5"
    stroke="var(--currentColor, #1C9DE2)"
    stroke-width="2"
    stroke-linecap="round"
    stroke-linejoin="round"
  />
</svg>
