<svg width="24" height="24" viewBox="0 0 24 24" fill="none" xmlns="http://www.w3.org/2000/svg">
<g id="uil:screw">
<path id="Vector" d="M21.71 10.12L13.88 2.28999C13.7485 2.15773 13.5826 2.06488 13.4011 2.02192C13.2197 1.97897 13.0298 1.98763 12.8529 2.04692C12.6761 2.10621 12.5194 2.21377 12.4005 2.35745C12.2816 2.50113 12.2052 2.6752 12.18 2.85999L11.45 7.99999L9.45 9.99999L9.12 9.80999C8.90469 9.70531 8.65896 9.68134 8.42748 9.74245C8.196 9.80356 7.99413 9.94569 7.85854 10.143C7.72296 10.3403 7.66267 10.5797 7.68863 10.8177C7.71459 11.0557 7.82507 11.2765 8 11.44L6.85 12.61L6.52 12.42C6.30523 12.3214 6.06247 12.302 5.83477 12.3653C5.60708 12.4286 5.40916 12.5706 5.27614 12.7659C5.14312 12.9612 5.08358 13.1974 5.10808 13.4324C5.13258 13.6675 5.23955 13.8863 5.41 14.05L4.24 15.21L3.92 15C3.80587 14.9339 3.67978 14.891 3.549 14.8738C3.41822 14.8566 3.28534 14.8655 3.158 14.8999C3.03066 14.9343 2.91138 14.9935 2.80703 15.0742C2.70268 15.1549 2.61533 15.2554 2.55 15.37C2.43706 15.5759 2.40022 15.8151 2.44593 16.0454C2.49165 16.2758 2.61699 16.4828 2.8 16.63L2.29 17.14C2.1974 17.2339 2.12581 17.3463 2.08 17.47C2.02876 17.5902 2.00158 17.7193 2 17.85V21C2 21.2652 2.10536 21.5196 2.29289 21.7071C2.48043 21.8946 2.73478 22 3 22H6.13C6.26068 21.9984 6.38978 21.9712 6.51 21.92C6.63364 21.8742 6.74613 21.8026 6.84 21.71L8.54 20L8.87 20.19C8.98354 20.2565 9.10909 20.3 9.23946 20.3179C9.36983 20.3358 9.50246 20.3278 9.62973 20.2944C9.757 20.2609 9.87643 20.2027 9.98115 20.123C10.0859 20.0433 10.1738 19.9437 10.24 19.83C10.3567 19.6241 10.3967 19.3835 10.3527 19.151C10.3088 18.9185 10.1838 18.7091 10 18.56L11.17 17.4L11.5 17.59C11.6495 17.6747 11.8182 17.7195 11.99 17.72C12.1814 17.7027 12.3638 17.6307 12.5153 17.5125C12.6669 17.3943 12.7811 17.2349 12.8444 17.0534C12.9077 16.8719 12.9174 16.6761 12.8723 16.4892C12.8272 16.3024 12.7292 16.1326 12.59 16L13.76 14.84L14.09 15.03C14.2395 15.1147 14.4082 15.1595 14.58 15.16C14.7842 15.1563 14.9824 15.0903 15.1479 14.9706C15.3135 14.851 15.4384 14.6835 15.5059 14.4907C15.5734 14.298 15.5803 14.0892 15.5256 13.8924C15.4709 13.6956 15.3573 13.5203 15.2 13.39L15.99 12.6L21.14 11.87C21.3251 11.8437 21.4991 11.766 21.6423 11.6458C21.7854 11.5256 21.892 11.3677 21.95 11.19C22.0186 11.0077 22.0324 10.8092 21.9897 10.6192C21.9471 10.4291 21.8499 10.2556 21.71 10.12ZM5.72 20H4V18.28L4.57 17.71L6.75 19L5.72 20ZM8.21 17.5L6 16.25L7.14 15.11L9.31 16.36L8.21 17.5ZM10.82 14.9L8.64 13.64L9.79 12.5L12 13.75L10.82 14.9ZM13.43 12.29L11.25 11L12.39 9.85999L14.11 11.58L13.43 12.29ZM15.88 10.55L13.45 8.11999L13.88 5.11999L18.88 10.12L15.88 10.55Z" fill="#595959"/>
</g>
</svg>
