<svg width="24" height="24" viewBox="0 0 24 24" fill="none" xmlns="http://www.w3.org/2000/svg">
<g id="fluent:wrench-screwdriver-24-regular">
<path id="Vector" d="M16.25 2C16.1108 2.00019 15.9744 2.03911 15.8561 2.1124C15.7378 2.18569 15.6422 2.29047 15.58 2.415L14.58 4.415C14.5248 4.52532 14.4976 4.64756 14.501 4.77088C14.5043 4.8942 14.538 5.01481 14.599 5.122L15.5 6.7V12H14.75C14.5511 12 14.3603 12.079 14.2197 12.2197C14.079 12.3603 14 12.5511 14 12.75V18.5C14 19.4283 14.3688 20.3185 15.0252 20.9749C15.6815 21.6313 16.5718 22 17.5 22C18.4283 22 19.3185 21.6313 19.9749 20.9749C20.6313 20.3185 21 19.4283 21 18.5V12.75C21 12.5511 20.921 12.3603 20.7804 12.2197C20.6397 12.079 20.4489 12 20.25 12H19.5V6.7L20.401 5.122C20.4623 5.01489 20.4961 4.89433 20.4996 4.77101C20.5031 4.64768 20.4761 4.5254 20.421 4.415L19.421 2.415C19.3588 2.29032 19.263 2.18544 19.1445 2.11214C19.026 2.03884 18.8894 2 18.75 2H16.25ZM18 12H17V6.5C17 6.3695 16.9658 6.24127 16.901 6.128L16.101 4.726L16.714 3.5H18.287L18.9 4.726L18.099 6.128C18.0342 6.24127 18.0001 6.3695 18 6.5V12ZM15.5 18.5V16H19.5V18.5C19.5 19.0304 19.2893 19.5391 18.9142 19.9142C18.5392 20.2893 18.0305 20.5 17.5 20.5C16.9696 20.5 16.4609 20.2893 16.0858 19.9142C15.7107 19.5391 15.5 19.0304 15.5 18.5ZM19.5 14.5H15.5V13.5H19.5V14.5ZM9.52602 2.136C9.4123 2.09099 9.2893 2.07448 9.16774 2.0879C9.04618 2.10131 8.92974 2.14426 8.82857 2.21298C8.72741 2.28171 8.64458 2.37413 8.58732 2.4822C8.53005 2.59027 8.50008 2.7107 8.50002 2.833V6.5C8.50002 6.76522 8.39467 7.01957 8.20713 7.20711C8.01959 7.39464 7.76524 7.5 7.50002 7.5C7.23481 7.5 6.98045 7.39464 6.79292 7.20711C6.60538 7.01957 6.50002 6.76522 6.50002 6.5V2.833C6.50003 2.71057 6.47006 2.59001 6.41274 2.48183C6.35542 2.37365 6.27249 2.28115 6.17119 2.2124C6.06989 2.14365 5.95331 2.10074 5.8316 2.08742C5.7099 2.07411 5.58679 2.09078 5.47302 2.136C4.49272 2.52489 3.64483 3.18733 3.03034 4.04444C2.41584 4.90155 2.06063 5.91721 2.007 6.97047C1.95337 8.02373 2.20357 9.07022 2.72783 9.98531C3.25208 10.9004 4.02829 11.6455 4.96402 12.132V19.464C4.96402 20.1366 5.23121 20.7816 5.7068 21.2572C6.18239 21.7328 6.82744 22 7.50002 22C8.17261 22 8.81765 21.7328 9.29325 21.2572C9.76884 20.7816 10.036 20.1366 10.036 19.464V12.132C10.9717 11.6455 11.7479 10.9002 12.272 9.98508C12.7962 9.06993 13.0463 8.02341 12.9926 6.97014C12.9389 5.91688 12.5835 4.90125 11.9689 4.0442C11.3543 3.18714 10.5064 2.52479 9.52602 2.136ZM10 6.5V4.127C10.5445 4.56324 10.9655 5.13425 11.2213 5.7834C11.477 6.43255 11.5586 7.13728 11.4579 7.82768C11.3572 8.51809 11.0778 9.17018 10.6474 9.71928C10.2169 10.2684 9.65043 10.6954 9.00402 10.958C8.86571 11.0141 8.74729 11.1102 8.66392 11.2341C8.58055 11.3579 8.53602 11.5037 8.53602 11.653V19.464C8.53602 19.7388 8.42688 20.0023 8.23259 20.1966C8.0383 20.3909 7.77479 20.5 7.50002 20.5C7.22526 20.5 6.96175 20.3909 6.76746 20.1966C6.57317 20.0023 6.46402 19.7388 6.46402 19.464V11.653C6.46403 11.5037 6.4195 11.3579 6.33613 11.2341C6.25276 11.1102 6.13434 11.0141 5.99602 10.958C5.34983 10.6953 4.78352 10.2683 4.35323 9.7193C3.92295 9.17028 3.64363 8.51834 3.54297 7.8281C3.44232 7.13786 3.52382 6.4333 3.7794 5.78427C4.03498 5.13524 4.45576 4.56428 5.00002 4.128V6.5C5.00002 7.16304 5.26342 7.79893 5.73226 8.26777C6.2011 8.73661 6.83698 9 7.50002 9C8.16307 9 8.79895 8.73661 9.26779 8.26777C9.73663 7.79893 10 7.16304 10 6.5Z" fill="#595959"/>
</g>
</svg>
